<svg viewBox="0 0 1275.59 273.58" xmlns="http://www.w3.org/2000/svg"><path d="m48.2 210.61 50.62-50.61a25.42 25.42 0 0 0 7.44-18v-39.82a69.86 69.86 0 0 1 20.46-49.4l20.28-20.24a2.55 2.55 0 0 0 -2.27-4.31c-6.14 1.11-12.33 2.47-18.54 4.13-83.7 22.43-139 87.36-123.56 145a78.38 78.38 0 0 0 18.44 33c7.21 7.84 19.64 7.76 27.17.23" fill="#6c6"/><path d="m260.06 63-39.88 39.88a25.41 25.41 0 0 0 -7.43 18v39.85a69.83 69.83 0 0 1 -20.47 49.4l-31 31a2.55 2.55 0 0 0 2.26 4.31q9.23-1.65 18.54-4.13c83.69-22.42 139-87.35 123.56-145a78.37 78.37 0 0 0 -18.43-33c-7.22-7.83-19.65-7.75-27.18-.22" fill="#6c6"/><path d="m217 7.41-67.82 67.82a38.08 38.08 0 0 0 -11.16 27v55.63a19.08 19.08 0 0 1 -5.58 13.48l-89.17 89.12a2.56 2.56 0 0 0 .73 4.14 173.29 173.29 0 0 0 21.86 7.93 25.68 25.68 0 0 0 25.38-6.36l78.57-78.56a38.08 38.08 0 0 0 11.16-27v-55.61a19.07 19.07 0 0 1 5.58-13.48l78.45-78.4a2.56 2.56 0 0 0 -.75-4.12 174.26 174.26 0 0 0 -21.86-7.92 25.66 25.66 0 0 0 -25.39 6.33" fill="#6c6"/><g fill="#2e3c50"><path d="m488.62 157.6c0 23.65-22.43 32.54-59.62 32.54a403.51 403.51 0 0 1 -49.77-2.94 2.5 2.5 0 0 1 -2.17-2.49v-8.48a12.44 12.44 0 0 1 13.53-12.4c14.11 1.27 26.41 1.86 38 1.86 17 0 30.92-1.61 30.92-12.53v-7.08c0-7.47-3.23-8.08-19.61-12.12l-35.16-8.49c-16.77-4-28.09-11.32-28.09-31.53v-13.13c0-23.85 24.65-32.54 60.43-32.54a262.93 262.93 0 0 1 48 3.87 2.55 2.55 0 0 1 2.11 2.48v7.53a12.45 12.45 0 0 1 -13.79 12.36 326.9 326.9 0 0 0 -35.53-1.79c-18.59 0-32.13 1.42-32.13 12.33v5.46c0 7.88 4.85 9.7 24.25 14.55l30.72 7.47c17.58 4.45 27.89 9.91 27.89 30.32z"/><path d="m726.86 123.86c0-16.37-11.52-18.59-27.69-18.59-18.59 0-25.06 3-30.52 14.34v56.66a12.45 12.45 0 0 1 -12.45 12.46h-14a2.5 2.5 0 0 1 -2.5-2.49v-91.16a12.46 12.46 0 0 1 12.46-12.46h11a2.49 2.49 0 0 1 2.47 2.19l1.56 13h1.21c4.9-12.76 20.87-17.21 42.9-17.21 25.46 0 44.46 7.69 44.46 29.92v65.75a12.46 12.46 0 0 1 -12.46 12.46h-13.95a2.49 2.49 0 0 1 -2.49-2.49z"/><path d="m825.94 141.52-6.28.55a12.45 12.45 0 0 0 -11.38 12.41v21.79a12.46 12.46 0 0 1 -12.46 12.46h-14a2.5 2.5 0 0 1 -2.49-2.49v-131a12.45 12.45 0 0 1 12.46-12.45h13.95a2.49 2.49 0 0 1 2.49 2.48v70.35a2.49 2.49 0 0 0 2.73 2.49l18.6-1.75a6.18 6.18 0 0 0 3.92-1.91l26.67-28a12.45 12.45 0 0 1 9-3.87h21a2.5 2.5 0 0 1 1.82 4.2l-38.97 41.72 42.6 56.23a2.5 2.5 0 0 1 -2 4h-21a12.46 12.46 0 0 1 -9.81-4.78l-31.34-40.06a6.26 6.26 0 0 0 -5.44-2.37"/><path d="m997.83 123.86c0-16.37-11.12-18.59-27.69-18.59-18.59 0-25.06 3-30.52 14.34v56.66a12.45 12.45 0 0 1 -12.45 12.46h-13.95a2.49 2.49 0 0 1 -2.49-2.49v-131a12.45 12.45 0 0 1 12.45-12.46h14a2.48 2.48 0 0 1 2.49 2.49v35.33l-1.41 17.18h1.21c4.85-12.73 20.82-17.18 42.85-17.18 25.46 0 44.46 7.69 44.46 29.92v65.75a12.45 12.45 0 0 1 -12.45 12.46h-14a2.49 2.49 0 0 1 -2.49-2.49z"/><path d="m1080.72 194.35-44.42-108.29a2.5 2.5 0 0 1 2.31-3.44h17.93a12.45 12.45 0 0 1 11.59 7.89l28.34 72 27.37-71.82a12.44 12.44 0 0 1 11.64-8h17.52a2.49 2.49 0 0 1 2.33 3.38l-52.33 136.69a12.46 12.46 0 0 1 -11.63 8h-17.37a2.49 2.49 0 0 1 -2.32-3.38l9.13-23.85a12.4 12.4 0 0 0 -.11-9.18"/><path d="m1247.9 173.16h-1.21c-4.45 12.13-20.41 17-42 17-24.85 0-43.85-8.08-43.85-30.11 0-27.41 14.72-33.3 44-34.13 16.39-.46 24.32.4 41.91 2v-7.68c0-10.11-8.69-16-37.18-16a314.68 314.68 0 0 0 -37.2 2.48 2.5 2.5 0 0 1 -2.82-2.46v-9.16a12.48 12.48 0 0 1 11-12.38 312.29 312.29 0 0 1 38-2.12c37.59 0 57.19 8.7 57.19 33.35v62.32a12.45 12.45 0 0 1 -12.45 12.46h-11.2a2.49 2.49 0 0 1 -2.47-2.2zm-1.21-26.87a246.06 246.06 0 0 0 -28.29-2.22c-18.2 0-28.5 1.61-28.5 12.52 0 10.11 11.72 11.53 25.87 11.53 16.17 0 24.86-3.24 30.92-11.32z"/><path d="m589.25 173.16h-1.25c-4.44 12.13-20.41 17-42 17-24.86 0-43.86-8.08-43.86-30.11 0-27.41 14.72-33.3 44-34.13 16.38-.46 24.32.4 41.9 2v-7.68c0-10.11-8.69-16-37.18-16a314.81 314.81 0 0 0 -37.2 2.48 2.5 2.5 0 0 1 -2.82-2.46v-9.16a12.48 12.48 0 0 1 10.95-12.38 312.29 312.29 0 0 1 38-2.12c37.6 0 57.2 8.7 57.2 33.35v62.32a12.46 12.46 0 0 1 -12.46 12.46h-11.2a2.49 2.49 0 0 1 -2.47-2.2zm-1.25-26.87a245.89 245.89 0 0 0 -28.29-2.22c-18.19 0-28.5 1.61-28.5 12.52 0 10.11 11.73 11.53 25.87 11.53 16.17 0 24.86-3.24 30.92-11.32z"/></g></svg>